<?xml version="1.0" encoding="UTF-8" standalone="no"?>
<!-- Created with Inkscape (http://www.inkscape.org/) -->

<svg
   width="20mm"
   height="20mm"
   viewBox="0 0 20 20"
   version="1.1"
   id="svg1"
   inkscape:version="1.3.2 (091e20e, 2023-11-25, custom)"
   sodipodi:docname="dibujo.svg"
   xmlns:inkscape="http://www.inkscape.org/namespaces/inkscape"
   xmlns:sodipodi="http://sodipodi.sourceforge.net/DTD/sodipodi-0.dtd"
   xmlns="http://www.w3.org/2000/svg"
   xmlns:svg="http://www.w3.org/2000/svg">
  <sodipodi:namedview
     id="namedview1"
     pagecolor="#ffffff"
     bordercolor="#000000"
     borderopacity="0.25"
     inkscape:showpageshadow="true"
     inkscape:pageopacity="0.0"
     inkscape:pagecheckerboard="true"
     inkscape:deskcolor="#d1d1d1"
     inkscape:document-units="mm"
     inkscape:zoom="5.701459"
     inkscape:cx="32.535532"
     inkscape:cy="62.615551"
     inkscape:window-width="1920"
     inkscape:window-height="1009"
     inkscape:window-x="-8"
     inkscape:window-y="-8"
     inkscape:window-maximized="1"
     inkscape:current-layer="layer1"
     labelstyle="default"
     inkscape:clip-to-page="false" />
  <defs
     id="defs1">
    <pattern
       id="EMFhbasepattern"
       patternUnits="userSpaceOnUse"
       width="6"
       height="6"
       x="0"
       y="0" />
  </defs>
  <g
     inkscape:label="Capa 1"
     inkscape:groupmode="layer"
     id="layer1">
    <text
       xml:space="preserve"
       style="font-size:25.4001px;fill:#000000;stroke-width:0.264398"
       x="0.81604254"
       y="18.579082"
       id="text18"
       transform="scale(1.0007013,0.9992992)"><tspan
         sodipodi:role="line"
         id="tspan18"
         style="font-style:normal;font-variant:normal;font-weight:normal;font-stretch:normal;font-size:25.4001px;font-family:Stencil;-inkscape-font-specification:Stencil;stroke-width:0.264398"
         x="0.81604254"
         y="18.579082">©</tspan></text>
    <path
       style="fill:#ffffff;stroke-width:0.175394"
       d="M 34.903346,71.012576 C 15.193816,69.020866 1.6117995,50.311248 5.8991597,31.058476 6.9430405,26.370836 9.1771179,21.646936 12.168336,17.802461 15.395613,13.65459 20.531776,9.7819526 25.532833,7.7257082 28.732291,6.410212 33.662106,5.261811 36.109764,5.261811 h 0.722913 v 2.6082429 2.6082431 l -1.271604,0.120709 c -12.100864,1.148701 -21.742551,9.936528 -24.356619,22.199616 -0.572454,2.685488 -0.579216,7.830732 -0.014,10.651267 2.343472,11.694347 11.615806,20.619081 23.011317,22.148678 0.819965,0.110061 1.747359,0.237293 2.060876,0.282736 l 0.570029,0.08262 v 2.622957 c 0,1.993867 -0.05258,2.617369 -0.219242,2.599652 -0.120583,-0.01282 -0.890123,-0.0911 -1.710089,-0.17396 z"
       id="path1"
       transform="scale(0.26458333)" />
    <path
       style="fill:#ffffff;stroke-width:0.175394"
       d="m 39.463583,68.582278 c 0,-3.002182 -0.195972,-2.700794 1.874095,-2.882206 5.692469,-0.498863 11.604878,-3.381594 16.01904,-7.81045 4.099188,-4.112833 6.755471,-9.237765 7.730211,-14.914377 0.446696,-2.601432 0.474089,-6.822268 0.06009,-9.25947 C 63.285227,22.755351 55.315512,13.921483 44.953291,11.332448 43.051343,10.85724 41.044428,10.523622 40.087712,10.523622 H 39.463583 V 7.8927165 5.261811 l 0.657726,0.00321 c 0.36175,0.00177 1.477231,0.1196923 2.478847,0.2620557 14.655909,2.083098 26.063761,13.4764173 28.184418,28.1485113 0.406019,2.809105 0.274555,8.063076 -0.269903,10.786712 -2.544362,12.728118 -12.35486,22.940193 -24.824612,25.840775 -1.373682,0.319532 -5.24147,0.906765 -5.972369,0.906765 -0.210573,0 -0.254107,-0.450164 -0.254107,-2.627565 z"
       id="path2"
       transform="scale(0.26458333)" />
    <path
       style="fill:#ffffff;stroke-width:0.175394"
       d="m 35.468715,57.074491 c -3.181349,-0.533739 -6.5293,-2.227432 -8.809,-4.456381 -3.553149,-3.474047 -5.138615,-7.893697 -5.127913,-14.294586 0.01033,-6.175422 1.761132,-10.802148 5.475609,-14.469981 3.125139,-3.085894 7.803293,-5.252219 11.359961,-5.260486 l 0.57003,-0.0013 v 1.66624 c 0,1.622641 -0.01057,1.666241 -0.404146,1.666241 -0.74146,0 -1.967479,0.94486 -2.420726,1.865589 l -0.419912,0.853013 -0.0481,13.397297 c -0.04777,13.304954 -0.04556,13.402547 0.320603,14.158948 0.466157,0.962951 1.221501,1.602086 2.203915,1.86484 l 0.768371,0.205509 v 1.542165 1.542166 l -1.008514,-0.01785 c -0.554683,-0.0098 -1.66176,-0.127448 -2.460173,-0.261398 z"
       id="path3"
       transform="scale(0.26458333)" />
    <path
       style="fill:#ffffff;stroke-width:0.175394"
       d="m 41.392913,55.827722 v -1.571329 l 1.397535,-0.300315 c 1.642302,-0.352913 3.794719,-1.390818 4.942003,-2.383055 1.011359,-0.874681 1.909147,-2.209305 2.530841,-3.76227 0.26194,-0.654313 0.637568,-1.339947 0.834731,-1.523631 0.52201,-0.486328 1.243804,-0.41918 1.911956,0.177866 0.501768,0.448369 0.569033,0.611166 0.542443,1.312841 -0.04088,1.078781 -1.011711,3.04768 -2.225581,4.513603 -2.273598,2.745695 -5.601456,4.617455 -8.866223,4.986821 l -1.067705,0.120797 z"
       id="path4"
       transform="scale(0.26458333)" />
    <path
       style="fill:#ffffff;stroke-width:0.175394"
       d="m 50.879111,33.191331 c -0.315208,-0.315208 -0.687816,-1.095874 -1.067361,-2.236269 -1.140643,-3.427221 -2.85961,-6.162922 -4.73958,-7.542947 -0.98099,-0.720113 -2.656802,-1.477116 -3.284621,-1.483739 -0.380079,-0.004 -0.394636,-0.06312 -0.394636,-1.602622 v -1.598458 l 0.83312,0.124478 c 0.458217,0.06846 1.740783,0.4032 2.850148,0.74386 4.383942,1.346207 4.499027,1.347543 5.391861,0.06261 0.790775,-1.138051 1.863996,-1.352587 2.680711,-0.535872 0.33255,0.33255 0.346326,0.608484 0.346326,6.937081 v 6.590756 l -0.51269,0.512689 c -0.678075,0.678076 -1.443289,0.688419 -2.103278,0.02843 z"
       id="path5"
       transform="scale(0.26458333)" />
  </g>
</svg>
